<svg width="17" height="16" viewBox="0 0 17 16" fill="none" xmlns="http://www.w3.org/2000/svg">
<path d="M10.3946 7.99995L16.6246 1.76968C17.0301 1.36443 17.0301 0.709193 16.6246 0.30394C16.2194 -0.101313 15.5641 -0.101313 15.1589 0.30394L8.92862 6.53421L2.69854 0.30394C2.29309 -0.101313 1.63805 -0.101313 1.23279 0.30394C0.82735 0.709193 0.82735 1.36443 1.23279 1.76968L7.46287 7.99995L1.23279 14.2302C0.82735 14.6355 0.82735 15.2907 1.23279 15.696C1.43476 15.8981 1.70031 15.9997 1.96567 15.9997C2.23103 15.9997 2.49639 15.8981 2.69854 15.696L8.92862 9.4657L15.1589 15.696C15.361 15.8981 15.6264 15.9997 15.8918 15.9997C16.1571 15.9997 16.4225 15.8981 16.6246 15.696C17.0301 15.2907 17.0301 14.6355 16.6246 14.2302L10.3946 7.99995Z" fill="white"/>
</svg>
